<svg id="图层_1" data-name="图层 1" xmlns="http://www.w3.org/2000/svg" xmlns:xlink="http://www.w3.org/1999/xlink" viewBox="0 0 360 360"><defs><style>.cls-1,.cls-2,.cls-3,.cls-4,.cls-5{stroke:#fff;stroke-linejoin:round;stroke-width:5px;}.cls-1,.cls-6{fill:url(#未命名的渐变_16);}.cls-2,.cls-7{fill:url(#未命名的渐变_16-2);}.cls-3,.cls-8{fill:url(#未命名的渐变_16-3);}.cls-4,.cls-9{fill:url(#未命名的渐变_16-4);}.cls-10,.cls-5{fill:url(#未命名的渐变_4);}</style><linearGradient id="未命名的渐变_16" x1="46" y1="120.19" x2="122.01" y2="175.09" gradientUnits="userSpaceOnUse"><stop offset="0" stop-color="#e60012"/><stop offset="1" stop-color="#ea5514"/></linearGradient><linearGradient id="未命名的渐变_16-2" x1="39.95" y1="128.57" x2="115.96" y2="183.47" xlink:href="#未命名的渐变_16"/><linearGradient id="未命名的渐变_16-3" x1="6.95" y1="174.26" x2="82.97" y2="229.16" xlink:href="#未命名的渐变_16"/><linearGradient id="未命名的渐变_16-4" x1="18.76" y1="157.91" x2="94.77" y2="212.81" xlink:href="#未命名的渐变_16"/><linearGradient id="未命名的渐变_4" x1="355.18" y1="245.04" x2="92.77" y2="147.6" gradientUnits="userSpaceOnUse"><stop offset="0" stop-color="#0d3777"/><stop offset="1" stop-color="#005ca7"/></linearGradient></defs><title>辰栖科技</title><path class="cls-1" d="M52.45,177.38c-24.54-20-36-38.91-31.55-52s25.2-21,56.83-21.66q2.25,0,4.54,0,3.33,0,6.76.11a118.38,118.38,0,0,1,13.11-13.37c-8.58-.66-16.86-.93-24.71-.76C39,90.49,14.2,101.56,7.59,120.83s6.17,43.23,36,67.48c6.09,5,12.78,9.81,20,14.56a118.16,118.16,0,0,1-2.17-18.64C58.27,182,55.28,179.68,52.45,177.38Z"/><path class="cls-2" d="M79.48,116.92a118.73,118.73,0,0,0-18.12,67.3c15.87,11.62,35,22.67,56.39,32.54C98.18,197.89,67.19,159.82,79.48,116.92Z"/><path class="cls-3" d="M128.46,236.82c-24.16-10-46.25-21.58-64.94-34,.72,3.65,1.61,7.3,2.69,10.94a118.16,118.16,0,0,0,29.34,49.63C105.1,258.35,120.44,248.85,128.46,236.82Z"/><path class="cls-4" d="M132.29,229.34a155.2,155.2,0,0,1-14.54-12.57c-21.35-9.88-40.52-20.92-56.39-32.54a118.16,118.16,0,0,0,2.17,18.64c18.69,12.38,40.77,23.93,64.94,34A34,34,0,0,0,132.29,229.34Z"/><path class="cls-5" d="M316.43,171.7c-6.09-5-12.78-9.81-20-14.56-.72-3.65-1.61-7.3-2.69-10.94A118.67,118.67,0,0,0,121,77c34.9-8.62,81.66,7.21,107.77,29.41,0,0-57.53-28.52-96.07-12.17a48.9,48.9,0,0,0-15,9.81c-.65.62-1.25,1.26-1.83,1.9-31.91,35.13,32.21,95.82,32.21,95.82s39.5-82.53,94.67-35c0,0-36.2-12.32-58.42,55.38,0,0,39.89,26.39,74.38,16.07C293,228,289.11,184.58,288.47,181.08c0,0,8.39,22.37-2.49,52.31a118.57,118.57,0,0,0,12.64-57.62c3.09,2.26,6.09,4.55,8.92,6.85,24.54,20,36,38.91,31.55,52s-25.2,21-56.83,21.66c-3.66.08-7.43,0-11.27-.08,1.26-1.5,2.49-3,3.67-4.59a43.87,43.87,0,0,1-6.14,4.52c-10.38,6.4-24.46,9.72-39.76,9.91a123.25,123.25,0,0,1-57.89-13.87c-.9-.48-1.81-1-2.7-1.46l-.29.53c-2.38,4.24-20.11,33.43-54.72,26.89a118.67,118.67,0,0,0,144.69-8.51c6.85.52,13.5.8,19.9.8,1.62,0,3.22,0,4.81-.05,38.42-.83,63.23-11.89,69.84-31.16S346.25,195.95,316.43,171.7Zm-65.09-22.15c-.58-1-1.18-2-1.78-2.85-8.62-12.62-18.73-10.82-21.83-9.87a8.87,8.87,0,0,0-1,.34l.59-.5c4.66-3.93,6.79-8.17,7.54-12.11a22.43,22.43,0,0,0-2.25-13.94c10.48,18.58,24.53,12.08,24.53,12.08a21.74,21.74,0,0,0-6.78,8.78c-2.54,6.23-1.2,12.3-.08,15.57A19.35,19.35,0,0,0,251.34,149.55Z"/><path class="cls-6" d="M52.45,177.38c-24.54-20-36-38.91-31.55-52s25.2-21,56.83-21.66q2.25,0,4.54,0,3.33,0,6.76.11a118.38,118.38,0,0,1,13.11-13.37c-8.58-.66-16.86-.93-24.71-.76C39,90.49,14.2,101.56,7.59,120.83s6.17,43.23,36,67.48c6.09,5,12.78,9.81,20,14.56a118.16,118.16,0,0,1-2.17-18.64C58.27,182,55.28,179.68,52.45,177.38Z"/><path class="cls-7" d="M79.48,116.92a118.73,118.73,0,0,0-18.12,67.3c15.87,11.62,35,22.67,56.39,32.54C98.18,197.89,67.19,159.82,79.48,116.92Z"/><path class="cls-8" d="M128.46,236.82c-24.16-10-46.25-21.58-64.94-34,.72,3.65,1.61,7.3,2.69,10.94a118.16,118.16,0,0,0,29.34,49.63C105.1,258.35,120.44,248.85,128.46,236.82Z"/><path class="cls-9" d="M132.29,229.34a155.2,155.2,0,0,1-14.54-12.57c-21.35-9.88-40.52-20.92-56.39-32.54a118.16,118.16,0,0,0,2.17,18.64c18.69,12.38,40.77,23.93,64.94,34A34,34,0,0,0,132.29,229.34Z"/><path class="cls-10" d="M316.43,171.7c-6.09-5-12.78-9.81-20-14.56-.72-3.65-1.61-7.3-2.69-10.94A118.67,118.67,0,0,0,121,77c34.9-8.62,81.66,7.21,107.77,29.41,0,0-57.53-28.52-96.07-12.17a48.9,48.9,0,0,0-15,9.81c-.65.62-1.25,1.26-1.83,1.9-31.91,35.13,32.21,95.82,32.21,95.82s39.5-82.53,94.67-35c0,0-36.2-12.32-58.42,55.38,0,0,39.89,26.39,74.38,16.07C293,228,289.11,184.58,288.47,181.08c0,0,8.39,22.37-2.49,52.31a118.57,118.57,0,0,0,12.64-57.62c3.09,2.26,6.09,4.55,8.92,6.85,24.54,20,36,38.91,31.55,52s-25.2,21-56.83,21.66c-3.66.08-7.43,0-11.27-.08,1.26-1.5,2.49-3,3.67-4.59a43.87,43.87,0,0,1-6.14,4.52c-10.38,6.4-24.46,9.72-39.76,9.91a123.25,123.25,0,0,1-57.89-13.87c-.9-.48-1.81-1-2.7-1.46l-.29.53c-2.38,4.24-20.11,33.43-54.72,26.89a118.67,118.67,0,0,0,144.69-8.51c6.85.52,13.5.8,19.9.8,1.62,0,3.22,0,4.81-.05,38.42-.83,63.23-11.89,69.84-31.16S346.25,195.95,316.43,171.7Zm-65.09-22.15c-.58-1-1.18-2-1.78-2.85-8.62-12.62-18.73-10.82-21.83-9.87a8.87,8.87,0,0,0-1,.34l.59-.5c4.66-3.93,6.79-8.17,7.54-12.11a22.43,22.43,0,0,0-2.25-13.94c10.48,18.58,24.53,12.08,24.53,12.08a21.74,21.74,0,0,0-6.78,8.78c-2.54,6.23-1.2,12.3-.08,15.57A19.35,19.35,0,0,0,251.34,149.55Z"/></svg>